<svg width="215" height="56" viewBox="0 0 215 56" fill="none" xmlns="http://www.w3.org/2000/svg">
    <path d="M33.4805 26.7669C33.5033 24.905 33.9958 23.079 34.9123 21.4581C35.8288 19.8373 37.1397 18.4741 38.7235 17.4949C37.721 16.0554 36.3961 14.8701 34.8543 14.0335C33.3126 13.1968 31.5967 12.7319 29.8435 12.6759C26.1075 12.2819 22.4855 14.9199 20.5815 14.9199C18.6405 14.9199 15.7095 12.7199 12.5525 12.7799C10.5084 12.8476 8.51683 13.4445 6.77246 14.5123C5.02809 15.5801 3.59061 17.0822 2.60052 18.8719C-1.69948 26.3499 1.50752 37.3389 5.62952 43.3839C7.69152 46.3439 10.1025 49.6499 13.2555 49.5329C16.3415 49.4049 17.4945 47.5579 21.2195 47.5579C24.9105 47.5579 25.9915 49.5329 29.2095 49.4579C32.5215 49.4039 34.6095 46.4849 36.5975 43.4969C38.0797 41.3868 39.2197 39.0562 39.9755 36.5909C38.0481 35.7711 36.4043 34.4028 35.2486 32.656C34.0929 30.9093 33.4763 28.8613 33.4755 26.7669H33.4805Z" fill="white"/>
    <path d="M27.4001 8.70088C29.2079 6.52134 30.0972 3.72422 29.8801 0.900879C27.1191 1.19279 24.5702 2.51638 22.7431 4.60688C20.9344 6.67547 20.0199 9.37696 20.2001 12.1189C21.5808 12.1323 22.9465 11.8315 24.1939 11.2393C25.4412 10.6472 26.5376 9.77915 27.4001 8.70088V8.70088Z" fill="white"/>
    <path d="M70.8002 42.337H60.6732L58.2412 49.545H53.9512L63.5442 22.877H68.0012L77.5942 49.545H73.2302L70.8002 42.337ZM61.7242 39.011H69.7522L65.7952 27.311H65.6842L61.7242 39.011Z" fill="white"/>
    <path d="M98.3115 39.825C98.3115 45.867 95.0895 49.749 90.2275 49.749C88.9947 49.8128 87.769 49.5276 86.691 48.9262C85.6131 48.3248 84.7266 47.4315 84.1335 46.349H84.0415V55.979H80.0645V30.102H83.9135V33.336H83.9865C84.6069 32.2582 85.5084 31.3692 86.5948 30.7638C87.6811 30.1585 88.9115 29.8595 90.1545 29.899C95.0705 29.899 98.3115 33.799 98.3115 39.825ZM94.2245 39.825C94.2245 35.889 92.1975 33.301 89.1055 33.301C86.0675 33.301 84.0235 35.943 84.0235 39.825C84.0235 43.743 86.0665 46.366 89.1055 46.366C92.1975 46.366 94.2245 43.797 94.2245 39.825Z" fill="white"/>
    <path d="M119.633 39.825C119.633 45.867 116.41 49.749 111.548 49.749C110.315 49.813 109.089 49.5279 108.011 48.9265C106.933 48.325 106.046 47.4316 105.453 46.349H105.361V55.979H101.389V30.102H105.238V33.336H105.311C105.931 32.2582 106.833 31.3692 107.919 30.7638C109.005 30.1585 110.236 29.8595 111.479 29.899C116.389 29.899 119.633 33.799 119.633 39.825ZM115.545 39.825C115.545 35.889 113.518 33.301 110.426 33.301C107.388 33.301 105.344 35.943 105.344 39.825C105.344 43.743 107.387 46.366 110.426 46.366C113.518 46.366 115.545 43.797 115.545 39.825Z" fill="white"/>
    <path d="M133.722 42.1149C134.017 44.7599 136.576 46.4959 140.074 46.4959C143.425 46.4959 145.837 44.7599 145.837 42.3749C145.837 40.3049 144.383 39.0659 140.937 38.2159L137.494 37.3829C132.615 36.1999 130.35 33.9099 130.35 30.1939C130.35 25.5939 134.35 22.4319 140.016 22.4319C145.632 22.4319 149.481 25.5919 149.611 30.1939H145.599C145.359 27.5329 143.167 25.9259 139.964 25.9259C136.761 25.9259 134.569 27.5509 134.569 29.9169C134.569 31.8019 135.969 32.9119 139.394 33.7609L142.321 34.4819C147.772 35.7759 150.035 37.9739 150.035 41.8749C150.035 46.8639 146.078 49.9889 139.78 49.9889C133.888 49.9889 129.909 46.9379 129.652 42.1139L133.722 42.1149Z" fill="white"/>
    <path d="M158.62 25.501V30.101H162.304V33.261H158.62V43.981C158.62 45.646 159.358 46.422 160.977 46.422C161.414 46.4144 161.851 46.3837 162.285 46.33V49.472C161.556 49.6087 160.816 49.6707 160.076 49.657C156.154 49.657 154.625 48.178 154.625 44.408V33.263H151.809V30.101H154.626V25.501H158.62Z" fill="white"/>
    <path d="M164.436 39.8248C164.436 33.7078 168.026 29.8628 173.623 29.8628C179.239 29.8628 182.812 33.7068 182.812 39.8248C182.812 45.9588 179.258 49.7868 173.623 49.7868C167.988 49.7868 164.436 45.9588 164.436 39.8248ZM178.761 39.8248C178.761 35.6248 176.845 33.1518 173.623 33.1518C170.401 33.1518 168.485 35.6518 168.485 39.8248C168.485 44.0378 170.401 46.4958 173.623 46.4958C176.845 46.4958 178.761 44.0378 178.761 39.8248Z" fill="white"/>
    <path d="M186.092 30.1019H189.884V33.4109H189.976C190.23 32.3791 190.832 31.4664 191.681 30.8265C192.53 30.1867 193.573 29.8587 194.635 29.8979C195.093 29.8964 195.55 29.9464 195.997 30.0469V33.7799C195.418 33.6025 194.815 33.5211 194.21 33.5389C193.631 33.5166 193.054 33.6198 192.519 33.8414C191.984 34.063 191.503 34.3977 191.11 34.8226C190.716 35.2476 190.419 35.7526 190.239 36.3031C190.059 36.8536 190 37.4366 190.067 38.0119V49.5489H186.092V30.1019Z" fill="white"/>
    <path d="M214.329 43.8318C213.794 47.3618 210.369 49.7838 205.988 49.7838C200.353 49.7838 196.855 45.9938 196.855 39.9148C196.855 33.8148 200.372 29.8608 205.821 29.8608C211.18 29.8608 214.551 33.5608 214.551 39.4508V40.8178H200.869V41.0588C200.805 41.773 200.893 42.4926 201.128 43.17C201.363 43.8475 201.74 44.4671 202.233 44.988C202.725 45.5088 203.323 45.9188 203.987 46.1909C204.65 46.4629 205.364 46.5907 206.08 46.5658C207.021 46.6535 207.966 46.4345 208.772 45.9416C209.578 45.4487 210.203 44.7083 210.554 43.8308L214.329 43.8318ZM200.888 38.0318H210.573C210.61 37.3897 210.514 36.7468 210.291 36.1436C210.068 35.5404 209.722 34.9898 209.276 34.5265C208.83 34.0631 208.293 33.6969 207.699 33.4509C207.104 33.2049 206.466 33.0843 205.822 33.0968C205.174 33.0942 204.531 33.22 203.931 33.4671C203.331 33.7142 202.786 34.0777 202.328 34.5365C201.869 34.9953 201.506 35.5404 201.259 36.1403C201.012 36.7402 200.887 37.3831 200.889 38.0318H200.888Z" fill="white"/>
    <path d="M58.7553 8.19283H60.4623C60.7568 8.229 61.0555 8.20377 61.3397 8.11873C61.6239 8.03369 61.8873 7.89068 62.1135 7.69873C62.3396 7.50677 62.5236 7.27004 62.6537 7.00345C62.7837 6.73687 62.8572 6.44622 62.8693 6.14983C62.8693 4.96783 61.9833 4.20483 60.4813 4.20483C60.1798 4.16303 59.8729 4.18214 59.5788 4.26102C59.2847 4.33991 59.0095 4.47696 58.7693 4.66408C58.5291 4.8512 58.3289 5.08459 58.1805 5.35043C58.0321 5.61628 57.9386 5.90919 57.9053 6.21183H56.0333C56.0639 5.66246 56.2073 5.12528 56.4547 4.63378C56.702 4.14228 57.0479 3.707 57.4709 3.35507C57.8938 3.00314 58.3847 2.74211 58.913 2.58826C59.4413 2.43441 59.9956 2.39103 60.5413 2.46083C63.0553 2.46083 64.8243 3.87283 64.8243 5.90683C64.8312 6.5869 64.6048 7.24877 64.1828 7.78212C63.7608 8.31547 63.1687 8.68808 62.5053 8.83783V8.98883C63.2924 9.02517 64.033 9.37171 64.5652 9.95264C65.0974 10.5336 65.3779 11.3016 65.3453 12.0888C65.2886 12.6545 65.1194 13.2032 64.8476 13.7026C64.5759 14.202 64.2071 14.6421 63.763 14.997C63.3188 15.352 62.8082 15.6146 62.2612 15.7694C61.7141 15.9243 61.1416 15.9683 60.5773 15.8988C60.0115 15.9759 59.436 15.9381 58.8851 15.7877C58.3342 15.6373 57.8193 15.3773 57.3712 15.0233C56.9231 14.6693 56.551 14.2285 56.2771 13.7274C56.0033 13.2263 55.8333 12.6751 55.7773 12.1068H57.6773C57.7923 13.3328 58.9143 14.1238 60.5693 14.1238C62.2243 14.1238 63.3043 13.2358 63.3043 11.9838C63.3043 10.7138 62.2863 9.93183 60.5043 9.93183H58.7553V8.19283Z" fill="white"/>
    <path d="M67.5098 12.8559C67.5098 11.1149 68.8028 10.1119 71.0928 9.96893L73.7028 9.81793V8.98293C73.7028 7.96193 73.0318 7.38293 71.7308 7.38293C70.6698 7.38293 69.9358 7.77393 69.7228 8.45793H67.8808C68.0748 6.79693 69.6338 5.73193 71.8198 5.73193C74.2348 5.73193 75.5978 6.93893 75.5978 8.98193V15.5889H73.7658V14.2319H73.6158C73.3113 14.7189 72.8829 15.1161 72.3743 15.3828C71.8658 15.6496 71.2954 15.7763 70.7218 15.7499C70.3166 15.7914 69.9072 15.7476 69.52 15.6211C69.1328 15.4946 68.7764 15.2884 68.4739 15.0157C68.1713 14.743 67.9293 14.4099 67.7634 14.0379C67.5975 13.6659 67.5114 13.2632 67.5108 12.8559H67.5098ZM73.7028 12.0299V11.2259L71.3498 11.3769C70.0228 11.4659 69.4208 11.9189 69.4208 12.7719C69.4208 13.6419 70.1728 14.1489 71.2078 14.1489C71.5121 14.1792 71.8194 14.1478 72.1114 14.0566C72.4033 13.9654 72.6738 13.8162 72.9067 13.618C73.1397 13.4198 73.3302 13.1766 73.467 12.9031C73.6038 12.6295 73.684 12.3312 73.7028 12.0259V12.0299Z" fill="white"/>
    <path d="M80.6422 7.52495V15.5889H78.7422V5.91895H85.0862V7.52495H80.6422Z" fill="white"/>
    <path d="M96.6083 10.7507C96.6083 13.8227 95.0603 15.7507 92.6283 15.7507C92.0306 15.7913 91.4338 15.6599 90.9084 15.3721C90.383 15.0843 89.9509 14.6522 89.6633 14.1267H89.5133V18.8067H87.6133V5.91972H89.4433V7.51972H89.5863C89.8792 6.97586 90.3169 6.52373 90.851 6.21343C91.3851 5.90312 91.9948 5.74678 92.6123 5.76172C95.0603 5.75972 96.6083 7.67672 96.6083 10.7507ZM94.6523 10.7507C94.6523 8.70772 93.6893 7.47372 92.0783 7.47372C90.4673 7.47372 89.4783 8.73372 89.4783 10.7587C89.4783 12.7837 90.4783 14.0357 92.0713 14.0357C93.6863 14.0387 94.6523 12.8017 94.6523 10.7507Z" fill="white"/>
    <path d="M99.1422 19.0529V17.4099C99.3477 17.4363 99.5549 17.4483 99.7622 17.4459C100.168 17.4757 100.571 17.3543 100.892 17.105C101.214 16.8558 101.432 16.4964 101.505 16.0959L101.647 15.6249L98.1602 5.91895H100.231L102.646 13.5999H102.796L105.206 5.91994H107.222L103.63 15.9899C102.807 18.3429 101.896 19.0979 99.9302 19.0979C99.7712 19.0979 99.3202 19.0799 99.1422 19.0529Z" fill="white"/>
    <path d="M108.699 12.8468H110.592C110.778 13.6998 111.574 14.1468 112.692 14.1468C113.958 14.1468 114.735 13.5868 114.735 12.7168C114.735 11.7848 114.035 11.3398 112.692 11.3398H111.246V9.85382H112.663C113.812 9.85382 114.397 9.40982 114.397 8.60182C114.397 7.89182 113.831 7.34982 112.663 7.34982C111.599 7.34982 110.822 7.80282 110.699 8.56582H108.866C109.001 7.68952 109.475 6.90144 110.186 6.37162C110.897 5.84179 111.788 5.61272 112.666 5.73382C114.956 5.73382 116.266 6.77282 116.266 8.40682C116.278 8.8611 116.133 9.30553 115.856 9.6659C115.579 10.0263 115.187 10.2807 114.745 10.3868V10.5378C115.27 10.6076 115.751 10.8669 116.097 11.2669C116.444 11.6668 116.632 12.1797 116.626 12.7088C116.626 14.5468 115.067 15.7638 112.687 15.7638C110.584 15.7678 108.875 14.7998 108.699 12.8468Z" fill="white"/>
    <path d="M119.367 15.5899V5.91992H121.252V12.5709H121.402L125.842 5.91992H127.727V15.5899H125.842V8.90292H125.701L121.253 15.5899H119.367Z" fill="white"/>
    <path d="M138.108 7.52492H135.074V15.5889H133.174V7.52492H130.137V5.91992H138.108V7.52492Z" fill="white"/>
    <path d="M148.35 12.9797C148.093 13.8625 147.534 14.6268 146.771 15.1388C146.007 15.6507 145.087 15.8776 144.173 15.7797C143.537 15.7956 142.904 15.6728 142.32 15.4197C141.736 15.1666 141.214 14.7893 140.79 14.3141C140.366 13.8389 140.051 13.2771 139.866 12.6678C139.682 12.0585 139.632 11.4163 139.72 10.7857C139.635 10.1537 139.686 9.51063 139.87 8.90005C140.054 8.28946 140.368 7.7256 140.789 7.24661C141.21 6.76762 141.729 6.38466 142.311 6.12365C142.893 5.86265 143.524 5.72967 144.162 5.73373C146.843 5.73373 148.462 7.57173 148.462 10.6087V11.2747H141.662V11.3817C141.632 11.736 141.675 12.0927 141.791 12.4291C141.906 12.7654 142.09 13.0739 142.332 13.3348C142.574 13.5956 142.867 13.8031 143.194 13.9438C143.52 14.0845 143.873 14.1553 144.228 14.1517C144.683 14.206 145.144 14.1235 145.552 13.9147C145.96 13.706 146.296 13.3805 146.518 12.9797H148.35ZM141.662 9.86373H146.526C146.551 9.54001 146.508 9.21473 146.399 8.90875C146.29 8.60277 146.119 8.32287 145.896 8.08699C145.673 7.85111 145.403 7.66448 145.104 7.53906C144.804 7.41365 144.482 7.35222 144.157 7.35873C143.828 7.35481 143.501 7.41701 143.196 7.54164C142.89 7.66626 142.613 7.85079 142.381 8.08432C142.148 8.31785 141.965 8.59564 141.841 8.90127C141.718 9.2069 141.657 9.53417 141.662 9.86373V9.86373Z" fill="white"/>
    <path d="M156.41 5.91992H160.754C162.639 5.91992 163.744 6.87792 163.744 8.37892C163.749 8.85478 163.589 9.31769 163.293 9.69016C162.997 10.0626 162.582 10.322 162.117 10.4249V10.5759C162.681 10.6118 163.21 10.8633 163.593 11.2783C163.977 11.6933 164.186 12.2399 164.177 12.8049C164.177 14.4919 162.913 15.5929 160.798 15.5929H156.41V5.91992ZM158.295 7.38492V9.88492H160.18C161.329 9.88492 161.88 9.44092 161.88 8.62392C161.88 7.86992 161.402 7.38092 160.392 7.38092L158.295 7.38492ZM158.295 11.2919V14.1249H160.55C161.674 14.1249 162.276 13.6249 162.276 12.7129C162.276 11.7449 161.595 11.2919 160.312 11.2919H158.295Z" fill="white"/>
</svg>
