<svg id="Лого" xmlns="http://www.w3.org/2000/svg" xmlns:xlink="http://www.w3.org/1999/xlink" width="193.086" height="48.423" viewBox="0 0 193.086 48.423">
    <defs>
        <linearGradient id="linear-gradient" x1="0.291" y1="0.957" x2="0.754" y2="-0.001" gradientUnits="objectBoundingBox">
            <stop offset="0" stop-color="#ffbe00"/>
            <stop offset="1" stop-color="#ffc700"/>
        </linearGradient>
        <linearGradient id="linear-gradient-2" x1="0.245" y1="1" x2="0.709" y2="0.043" gradientUnits="objectBoundingBox">
            <stop offset="0" stop-color="#ffc700"/>
            <stop offset="1" stop-color="#ffbe00"/>
        </linearGradient>
        <linearGradient id="linear-gradient-3" x1="0.256" y1="0.831" x2="0.744" y2="0.169" gradientUnits="objectBoundingBox">
            <stop offset="0" stop-color="#5551ff"/>
            <stop offset="1" stop-color="#6146ff"/>
        </linearGradient>
        <linearGradient id="linear-gradient-4" x1="0.347" y1="0.756" x2="0.529" y2="0.36" gradientUnits="objectBoundingBox">
            <stop offset="0" stop-color="#b31e00" stop-opacity="0.502"/>
            <stop offset="0.14" stop-color="#c74a00" stop-opacity="0.369"/>
            <stop offset="0.36" stop-color="#df8100" stop-opacity="0.212"/>
            <stop offset="0.58" stop-color="#f1a800" stop-opacity="0.09"/>
            <stop offset="0.79" stop-color="#fbbf00" stop-opacity="0.02"/>
            <stop offset="1" stop-color="#ffc700" stop-opacity="0"/>
        </linearGradient>
        <linearGradient id="linear-gradient-5" x1="0.471" y1="0.641" x2="0.654" y2="0.24" gradientUnits="objectBoundingBox">
            <stop offset="0" stop-color="#ffc700" stop-opacity="0"/>
            <stop offset="0.21" stop-color="#fbbf00" stop-opacity="0.02"/>
            <stop offset="0.42" stop-color="#f1a800" stop-opacity="0.09"/>
            <stop offset="0.64" stop-color="#df8100" stop-opacity="0.212"/>
            <stop offset="0.86" stop-color="#c74a00" stop-opacity="0.369"/>
            <stop offset="1" stop-color="#b31e00" stop-opacity="0.502"/>
        </linearGradient>
    </defs>
    <g id="Сгруппировать_80" data-name="Сгруппировать 80" transform="translate(53.737 9.666)">
        <path id="Контур_6" data-name="Контур 6" d="M234.063,576.239a15.132,15.132,0,0,1-5-2.35l2.21-4.9a14.981,14.981,0,0,0,4.3,2.13,16.133,16.133,0,0,0,4.982.8,7.955,7.955,0,0,0,4.1-.824,2.486,2.486,0,0,0,1.326-2.189,2.094,2.094,0,0,0-.783-1.668,5.947,5.947,0,0,0-2.01-1.066q-1.226-.4-3.315-.883a45.716,45.716,0,0,1-5.264-1.527,8.557,8.557,0,0,1-3.516-2.451,6.62,6.62,0,0,1-1.467-4.5,7.828,7.828,0,0,1,1.326-4.44,8.918,8.918,0,0,1,4-3.155,16.314,16.314,0,0,1,6.53-1.165,21.629,21.629,0,0,1,5.264.643,15.553,15.553,0,0,1,4.5,1.848l-2.008,4.942a15.693,15.693,0,0,0-7.8-2.209,7.31,7.31,0,0,0-4.038.883,2.7,2.7,0,0,0-1.306,2.331,2.279,2.279,0,0,0,1.507,2.15,23.6,23.6,0,0,0,4.6,1.386,45.923,45.923,0,0,1,5.264,1.528,8.726,8.726,0,0,1,3.516,2.411,6.467,6.467,0,0,1,1.467,4.46,7.679,7.679,0,0,1-1.346,4.4,9.049,9.049,0,0,1-4.039,3.154,16.471,16.471,0,0,1-6.549,1.165A23.011,23.011,0,0,1,234.063,576.239Z" transform="translate(-229.06 -548.052)"/>
        <path id="Контур_7" data-name="Контур 7" d="M319.494,548.916l-9.2,28.127H303.3L297.113,558l-6.389,19.046h-6.952l-9.242-28.127h6.751l6.349,19.769,6.63-19.769h6.028l6.428,19.93,6.55-19.93Z" transform="translate(-249.137 -548.433)"/>
        <path id="Контур_8" data-name="Контур 8" d="M375.464,571.015H362.405l-2.491,6.028h-6.67l12.536-28.127h6.429l12.577,28.127h-6.831Zm-2.05-4.942-4.46-10.769-4.461,10.769Z" transform="translate(-283.891 -548.433)"/>
        <path id="Контур_9" data-name="Контур 9" d="M433.641,550.161a9.31,9.31,0,0,1,5.725,8.961,9.762,9.762,0,0,1-1.487,5.4,9.471,9.471,0,0,1-4.238,3.537,15.863,15.863,0,0,1-6.489,1.225h-5.666v7.755h-6.509V548.916h12.175A15.639,15.639,0,0,1,433.641,550.161Zm-2.391,12.557a4.407,4.407,0,0,0,1.527-3.6,4.456,4.456,0,0,0-1.527-3.636,6.838,6.838,0,0,0-4.461-1.265h-5.3v9.764h5.3A6.834,6.834,0,0,0,431.249,562.717Z" transform="translate(-311.148 -548.433)"/>
        <path id="Контур_10" data-name="Контур 10" d="M466.924,548.916h6.509v28.127h-6.509Z" transform="translate(-334.084 -548.433)"/>
    </g>
    <g id="Лого_без_названия_" data-name="Лого (без названия)">
        <path id="Контур_508" data-name="Контур 508" d="M347.329,261.432a1.142,1.142,0,0,0-.3-.126l-7.458-1.982-2.41-.639a1.174,1.174,0,0,0-1.229.414,1.151,1.151,0,0,0-.086,1.284l.456.782-7.895,4.52-.627.369a4.613,4.613,0,0,0,0,7.647l.645.369,5.148,2.947,2.937-1.692,6.021-3.448.5.852a1.205,1.205,0,0,0,2.2-.288l.69-2.555,1.934-7.146a1.123,1.123,0,0,0,.037-.288A1.157,1.157,0,0,0,347.329,261.432Z" transform="translate(-314.545 -258.646)" fill="url(#linear-gradient)"/>
        <path id="Контур_509" data-name="Контур 509" d="M288.363,417.068l-5.793-3.318-2.951,1.69-6.081,3.477-.489-.846a1.172,1.172,0,0,0-2.143.278l-.682,2.523-1.963,7.264a1.39,1.39,0,0,0-.029.153,1.158,1.158,0,0,0,.709,1.215.877.877,0,0,0,.148.052l7.326,1.947,2.542.674a1.174,1.174,0,0,0,1.229-.414,1.151,1.151,0,0,0,.086-1.284l-.5-.842,7.957-4.556.625-.357a4.613,4.613,0,0,0,.01-7.645Z" transform="translate(-268.222 -383.792)" fill="url(#linear-gradient-2)"/>
        <path id="Контур_510" data-name="Контур 510" d="M309.532,312.875a9.3,9.3,0,0,0-1.66-1.283l-12.221-7a4.614,4.614,0,0,1,0-7.647L290.328,300a9.415,9.415,0,0,0-1.656,1.279,9.237,9.237,0,0,0,1.664,14.555l12.219,7a4.613,4.613,0,0,1-.01,7.645l5.321-3.046a9.449,9.449,0,0,0,1.66-1.281,9.217,9.217,0,0,0,0-13.271Z" transform="translate(-282.422 -289.552)" fill="url(#linear-gradient-3)"/>
        <path id="Контур_511" data-name="Контур 511" d="M326.135,307.05a4.613,4.613,0,0,0,1.626,5.7l.645.369,5.148,2.947,2.945-1.682.709-.408-8.869-4.1A4.641,4.641,0,0,1,326.135,307.05Z" transform="translate(-314.532 -297.701)" opacity="0.5" fill="url(#linear-gradient-4)"/>
        <path id="Контур_512" data-name="Контур 512" d="M333.685,422.83a4.613,4.613,0,0,0-1.593-5.761L326.3,413.75l-2.951,1.69-.818.467,8.96,4.143A4.642,4.642,0,0,1,333.685,422.83Z" transform="translate(-311.952 -383.792)" opacity="0.5" fill="url(#linear-gradient-5)"/>
    </g>
</svg>
