<svg xmlns="http://www.w3.org/2000/svg" width="292.422" height="56.258" viewBox="0 0 292.422 56.258">
  <g id="Сгруппировать_1577" data-name="Сгруппировать 1577" transform="translate(-255.999 -337.297)">
    <g id="Сгруппировать_1433" data-name="Сгруппировать 1433" transform="translate(255.999 337.297)">
      <path id="Контур_6" data-name="Контур 6" d="M238.736,602.562a29.264,29.264,0,0,1-9.676-4.545l4.275-9.481a28.972,28.972,0,0,0,8.315,4.119,31.2,31.2,0,0,0,9.635,1.554q5.362,0,7.926-1.594a4.808,4.808,0,0,0,2.564-4.234,4.049,4.049,0,0,0-1.514-3.225,11.5,11.5,0,0,0-3.887-2.061q-2.37-.775-6.41-1.709a88.386,88.386,0,0,1-10.18-2.953,16.547,16.547,0,0,1-6.8-4.74,12.8,12.8,0,0,1-2.836-8.7,15.139,15.139,0,0,1,2.565-8.586,17.247,17.247,0,0,1,7.732-6.1,31.55,31.55,0,0,1,12.627-2.253,41.829,41.829,0,0,1,10.179,1.243,30.073,30.073,0,0,1,8.7,3.574l-3.884,9.558a30.348,30.348,0,0,0-15.076-4.272q-5.286,0-7.81,1.708a5.218,5.218,0,0,0-2.525,4.507,4.406,4.406,0,0,0,2.914,4.157,45.639,45.639,0,0,0,8.9,2.681,88.8,88.8,0,0,1,10.18,2.954,16.88,16.88,0,0,1,6.8,4.662q2.835,3.186,2.837,8.625a14.85,14.85,0,0,1-2.6,8.508,17.5,17.5,0,0,1-7.811,6.1,31.85,31.85,0,0,1-12.664,2.254A44.5,44.5,0,0,1,238.736,602.562Z" transform="translate(-229.06 -548.052)"/>
      <path id="Контур_7" data-name="Контур 7" d="M361.483,548.916,343.69,603.309H330.168L318.2,566.477l-12.355,36.833H292.4l-17.872-54.393h13.055l12.277,38.23,12.821-38.23h11.656l12.432,38.541,12.667-38.541Z" transform="translate(-225.422 -547.983)"/>
      <path id="Контур_8" data-name="Контур 8" d="M396.215,591.653H370.96l-4.817,11.657h-12.9l24.244-54.393H389.92l24.323,54.393H401.032Zm-3.964-9.557-8.625-20.826L375,582.1Z" transform="translate(-219.125 -547.983)"/>
      <path id="Контур_9" data-name="Контур 9" d="M451.071,551.323a18,18,0,0,1,11.072,17.329,18.881,18.881,0,0,1-2.876,10.451,18.316,18.316,0,0,1-8.2,6.84,30.675,30.675,0,0,1-12.55,2.37H427.563v15H414.976V548.916h23.545A30.243,30.243,0,0,1,451.071,551.323Zm-4.625,24.283a8.524,8.524,0,0,0,2.953-6.954,8.617,8.617,0,0,0-2.953-7.032q-2.955-2.448-8.626-2.447H427.563v18.883H437.82Q443.493,578.055,446.446,575.606Z" transform="translate(-214.186 -547.983)"/>
      <path id="Контур_10" data-name="Контур 10" d="M466.924,548.916h12.587v54.393H466.924Z" transform="translate(-210.03 -547.983)"/>
    </g>
    <path id="Контур_555" data-name="Контур 555" d="M10.13,7.91A8.843,8.843,0,0,1,14.6,9.055,8.314,8.314,0,0,1,17.745,12.2a8.8,8.8,0,0,1,1.145,4.442,8.783,8.783,0,0,1-1.17,4.467,8.6,8.6,0,0,1-3.186,3.2,8.716,8.716,0,0,1-4.455,1.17,8.639,8.639,0,0,1-7.6-4.355,9.057,9.057,0,0,1,0-8.86A8.536,8.536,0,0,1,5.65,9.08,8.763,8.763,0,0,1,10.13,7.91Zm-.05,16.2a7.245,7.245,0,0,0,6.4-3.7,7.486,7.486,0,0,0,.971-3.77A7.5,7.5,0,0,0,16.5,12.9a6.972,6.972,0,0,0-2.613-2.65,7.331,7.331,0,0,0-3.758-.971,7.393,7.393,0,0,0-3.783.983A7.075,7.075,0,0,0,3.7,12.937,7.493,7.493,0,0,0,2.739,16.7,7.493,7.493,0,0,0,3.7,20.453a7.1,7.1,0,0,0,2.638,2.675A7.278,7.278,0,0,0,10.08,24.111Zm4.554-8.91a3.308,3.308,0,0,1-.51,1.867,3.161,3.161,0,0,1-1.456,1.17l2.19,3.36h-2.14l-1.941-2.986H8.562V21.6H6.422V11.792H10.5a4.587,4.587,0,0,1,3.024.921A3.068,3.068,0,0,1,14.635,15.2Zm-4.256,1.742A2.521,2.521,0,0,0,12,16.484a1.553,1.553,0,0,0,.572-1.282A1.518,1.518,0,0,0,12,13.933a2.571,2.571,0,0,0-1.618-.448H8.537v3.459Z" transform="translate(529.532 329.387)"/>
  </g>
</svg>
