<svg xmlns="http://www.w3.org/2000/svg" width="475.348" height="573.59" viewBox="0 0 475.348 573.59">
    <path id="Контур_614" data-name="Контур 614" d="M239.234,584.11q-68.926,0-122.8-34.067T32.062,451.408Q1.56,386.839,1.56,297.315t30.5-154.093q30.5-64.569,84.374-98.635t122.8-34.067q68.926,0,122.8,34.067t84.374,98.635q30.5,64.568,30.5,154.093t-30.5,154.093q-30.5,64.569-84.374,98.635T239.234,584.11Zm0-108.539q50.7,0,79.621-43.574t28.917-134.683q0-91.109-28.917-134.683t-79.621-43.574q-49.912,0-78.829,43.574T131.489,297.315q0,91.109,28.917,134.683T239.234,475.572Z" transform="translate(-1.561 -10.52)" fill="#fff"/>
</svg>