<svg xmlns="http://www.w3.org/2000/svg" width="444.451" height="564.083" viewBox="0 0 444.451 564.083">
    <path id="Контур_613" data-name="Контур 613" d="M949.088,470.026V574.6h-419.1V491.417L743.9,289.392q34.066-32.482,45.95-55.854t11.884-46.347q0-33.275-22.579-51.1T713,118.266q-36.443,0-65.757,13.864t-49.119,41.593l-93.485-60.211q32.482-48.327,89.524-75.66T724.882,10.52q61.8,0,108.142,20.2t72.094,57.042q25.748,36.84,25.748,86.752a193.378,193.378,0,0,1-19.014,84.771Q892.838,298.9,838.173,349.6L710.622,470.026Z" transform="translate(-504.637 -10.52)" fill="#fff"/>
</svg>