<svg xmlns="http://www.w3.org/2000/svg" width="441.282" height="564.083" viewBox="0 0 441.282 564.083">
    <path id="Контур_612" data-name="Контур 612" d="M790.639,245.819q72.887,11.884,111.707,54.269t38.82,104.973a165.661,165.661,0,0,1-25.352,89.128q-25.352,40.8-77.244,65.361T711.414,584.11a436.175,436.175,0,0,1-115.272-15.449q-56.646-15.449-96.258-43.97L549.8,426.452q31.69,23.768,73.283,36.84a282.42,282.42,0,0,0,85.167,13.072q48.327,0,76.056-18.618t27.729-52.685q0-68.133-103.784-68.134H649.618V252.157L763.7,123.02H527.612V20.027h388.2v83.186Z" transform="translate(-499.884 -20.027)" fill="#fff"/>
</svg>