<svg xmlns="http://www.w3.org/2000/svg" width="83.901" height="66.495" viewBox="0 0 83.901 66.495">
    <path id="Контур_584" data-name="Контур 584" d="M27.38,31.1a16.84,16.84,0,0,1,7.627,6.454,18.536,18.536,0,0,1,2.738,10.17q0,8.41-5.28,13.592a18.46,18.46,0,0,1-13.495,5.183,18.6,18.6,0,0,1-13.592-5.28A18.1,18.1,0,0,1,0,47.72,32.147,32.147,0,0,1,.978,39.9a88.334,88.334,0,0,1,4.3-11.734L16.624,0H35.985Zm46.155,0a16.84,16.84,0,0,1,7.627,6.454A18.536,18.536,0,0,1,83.9,47.72q0,8.41-5.28,13.592a18.46,18.46,0,0,1-13.495,5.183,18.6,18.6,0,0,1-13.592-5.28A18.1,18.1,0,0,1,46.155,47.72a32.147,32.147,0,0,1,.978-7.823,88.334,88.334,0,0,1,4.3-11.734L62.779,0H82.141Z" transform="translate(83.901 66.495) rotate(180)" fill="#ffc700"/>
</svg>