<svg xmlns="http://www.w3.org/2000/svg" width="83.901" height="66.495" viewBox="0 0 83.901 66.495">
    <path id="Контур_583" data-name="Контур 583" d="M30.78,53.9a16.84,16.84,0,0,1,7.627,6.454,18.536,18.536,0,0,1,2.738,10.17q0,8.41-5.28,13.592a18.46,18.46,0,0,1-13.495,5.183,18.6,18.6,0,0,1-13.592-5.28A18.1,18.1,0,0,1,3.4,70.52,32.147,32.147,0,0,1,4.378,62.7a88.334,88.334,0,0,1,4.3-11.734L20.024,22.8H39.385Zm46.155,0a16.84,16.84,0,0,1,7.627,6.454A18.536,18.536,0,0,1,87.3,70.52q0,8.41-5.28,13.592a18.46,18.46,0,0,1-13.495,5.183,18.6,18.6,0,0,1-13.592-5.28A18.1,18.1,0,0,1,49.555,70.52a32.147,32.147,0,0,1,.978-7.823,88.334,88.334,0,0,1,4.3-11.734L66.179,22.8H85.541Z" transform="translate(-3.4 -22.8)" fill="#ffc700"/>
</svg>